<svg width="296" height="203" viewBox="0 0 296 203" fill="none" xmlns="http://www.w3.org/2000/svg">
<path d="M97.75 129.32C98.65 129.627 99.37 129.383 99.91 128.59C101.983 125.517 103.377 122.147 104.09 118.48C104.44 116.68 105.58 115.38 106.01 113.52C107.01 109.26 108.63 105.24 109.72 101.03C111.107 95.6767 112.523 90.8733 113.97 86.62C116.75 78.44 119.873 69.65 123.34 60.25C131.77 37.37 146.66 14.47 168.77 4.35C171.617 3.05 174.427 2.23334 177.2 1.9C177.509 1.86718 177.804 1.75715 178.06 1.58C180.75 -0.259997 185.94 0.450003 189.07 1C190.563 1.26667 190.583 1.61334 189.13 2.04C187.71 2.46 186.19 2.74667 184.57 2.9C182.797 3.07334 181.117 3.34667 179.53 3.72C156.48 9.12 141.7 31.84 133.21 52.8C129.637 61.62 126.38 71.1133 123.44 81.28C123.073 82.5533 122.66 83.8033 122.2 85.03C121.64 86.5367 121.177 88.0833 120.81 89.67C119.037 97.41 116.36 106.33 112.78 116.43C107.98 129.99 101.58 142.89 94.28 154.94C86.86 167.187 77.74 178.297 66.92 188.27C62.32 192.517 56.7967 196.24 50.35 199.44C48.33 200.44 46.05 201.047 43.51 201.26C39.0767 201.64 34.8733 201.793 30.9 201.72C25.4667 201.613 21.14 200.16 17.92 197.36C14.79 194.64 9.07 189.58 8.32 185.26C7.78667 182.147 7.56 178.79 7.64 175.19C7.72667 171.623 8.48001 168.383 9.90001 165.47C14.36 156.33 23.38 149.47 32.15 144.79C36.43 142.5 42.01 142.09 46.66 142.68C49.88 143.093 49.9533 143.82 46.88 144.86C41.38 146.72 36.5467 149.163 32.38 152.19C27.71 155.57 24.64 161.63 21.97 166.74C19.2367 171.973 17.8533 177.6 17.82 183.62C17.8067 186.007 18.2667 188.013 19.2 189.64C22.02 194.57 27.58 198.55 32.95 199.03C35.7167 199.277 38.9467 198.813 42.64 197.64C49.64 195.41 57.34 192.37 62.7 187.2C63.69 186.24 64.88 185.91 65.91 184.96C70.3767 180.827 74.02 176.94 76.84 173.3C83.0867 165.213 88.3967 156.377 92.77 146.79C93.3567 145.51 92.94 144.543 91.52 143.89C85.7467 141.23 80.1167 139.14 74.63 137.62C69.2167 136.12 63.5067 134.613 57.5 133.1C54.4867 132.34 51.5033 131.937 48.55 131.89C45.27 131.837 42.28 131.943 39.58 132.21C35.68 132.597 31.5867 133.573 27.3 135.14C25.6867 135.733 24.1033 136.67 22.55 137.95C17.64 141.98 12.49 146.64 8.59001 151.69C7.69667 152.843 7.09334 154.183 6.78 155.71C6.28667 158.09 5.65334 160.333 4.88 162.44C4.80711 162.64 4.67878 162.815 4.51004 162.944C4.3413 163.074 4.13913 163.153 3.9272 163.172C3.71527 163.191 3.50234 163.149 3.31334 163.051C3.12435 162.953 2.9671 162.804 2.86001 162.62C-0.609994 156.6 0.0800052 149.44 4.34001 143.7C9.08001 137.313 15.4133 132.813 23.34 130.2C28.5533 128.487 33.31 127.46 37.61 127.12C44.16 126.6 51.21 126.77 58.02 127.77C64.0867 128.67 69.8033 129.887 75.17 131.42C80.87 133.047 87.48 135.25 95 138.03C96.4333 138.557 97.1467 138.057 97.14 136.53C97.14 136.437 97.14 136.323 97.14 136.19C97.1333 134.743 96.4633 133.737 95.13 133.17C84.91 128.843 74.6433 126.193 64.33 125.22C56.8033 124.507 49.4767 124.1 42.35 124C41.41 123.987 41.2967 123.677 42.01 123.07C42.64 122.54 43.4 122.17 44.23 122.07C53.7233 120.817 63.35 120.753 73.11 121.88C74.34 122.03 74.83 122.79 75.96 122.95C79.0133 123.383 82.0433 124.093 85.05 125.08C89.3433 126.487 93.5767 127.9 97.75 129.32Z" fill="#858585"/>
<path d="M274.81 181.18C274.77 182.007 275.153 182.333 275.96 182.16C281.113 181.06 285.96 179.81 290.5 178.41C291.993 177.95 293.513 177.65 295.06 177.51C295.148 177.501 295.238 177.515 295.319 177.551C295.4 177.587 295.471 177.644 295.523 177.716C295.576 177.788 295.609 177.872 295.619 177.96C295.629 178.049 295.615 178.138 295.58 178.22C293.51 183.07 280.1 187.34 275.14 188.8C272.007 189.727 269.34 191.087 267.14 192.88C265.26 194.413 263.333 195.69 261.36 196.71C253.873 200.557 245.447 202.473 236.08 202.46C228.907 202.447 222.007 201.923 215.38 200.89C209.073 199.91 202.64 198.187 196.08 195.72C189.34 193.18 182.91 190.557 176.79 187.85C174.463 186.823 172.237 185.623 170.11 184.25C168.11 182.96 166.35 182.75 164.38 181.79C150.4 175.01 134.69 166.9 117.25 157.46C117.122 157.392 116.974 157.369 116.831 157.396C116.687 157.424 116.557 157.499 116.46 157.61C114.12 160.343 111.793 163.12 109.48 165.94C99.41 178.25 85.86 187.22 71.64 193.78C70.6133 194.253 69.53 194.617 68.39 194.87C67.4033 195.083 67.15 194.747 67.63 193.86C67.93 193.307 68.3633 192.85 68.93 192.49C80.65 185.07 90.1033 176.11 97.29 165.61C103.937 155.903 109.6 145.45 114.28 134.25C115.873 130.443 117.467 126.537 119.06 122.53C119.64 121.077 120.023 119.61 120.21 118.13C120.46 116.08 121.82 114.29 122.51 112.28C123.65 108.947 124.683 105.607 125.61 102.26C126.543 98.9134 127.573 95.5867 128.7 92.28C130.96 85.67 132.68 78.57 135.02 72.01C136.63 67.51 137.72 62.9 139.55 58.4C143.737 48.06 147.833 39.8167 151.84 33.67C158.18 23.93 168.08 14.52 179.02 9.52002C181.52 8.38002 184.093 7.72668 186.74 7.56002C194.207 7.08668 200.457 7.31668 205.49 8.25001C206.29 8.40335 208.06 9.04001 210.8 10.16C217.96 13.1 223.167 18.0367 226.42 24.97C227.54 27.3633 228.103 30.1067 228.11 33.2C228.11 36.3733 228.107 39.6567 228.1 43.05C228.093 46.1767 227.56 49.02 226.5 51.58C224.25 57.02 221.53 62.36 217.22 66.47C209.487 73.8633 200.493 78.9567 190.24 81.75C186.85 82.68 180.97 83.4 178.53 80.01C178.42 79.859 178.35 79.6832 178.324 79.4982C178.299 79.3131 178.32 79.1244 178.385 78.9487C178.45 78.7729 178.558 78.6155 178.698 78.4902C178.839 78.3649 179.007 78.2756 179.19 78.23C181.54 77.64 183.9 77.07 186.33 77.07C195.48 77.09 204.45 70.05 210.19 63.23C214.37 58.27 217.557 53.16 219.75 47.9C220.477 46.16 221.07 44.2033 221.53 42.03C222.1 39.31 222.97 36.6 222.71 33.81C221.83 24.5034 217.357 17.7567 209.29 13.57C205.81 11.7633 202.203 10.59 198.47 10.05C195.677 9.65001 192.563 10.0767 189.13 11.33C182.663 13.6967 176.88 17.6 171.78 23.04C164.627 30.68 159.467 38.7667 156.3 47.3C154.04 53.3867 151.783 59.8634 149.53 66.73C149.19 67.7567 148.96 68.79 148.84 69.83C148.713 70.9834 148.217 72.0133 147.35 72.92C147.23 73.0459 147.138 73.1946 147.08 73.3565C147.021 73.5184 146.997 73.6899 147.01 73.86C147.14 75.79 147.29 77.6 146.53 79.48C145.15 82.88 144.027 86.4167 143.16 90.09C142.333 93.6233 141.33 97.0833 140.15 100.47C137.517 108.063 134.837 116.077 132.11 124.51C130.42 129.75 128.3 134.64 126.05 139.71C125.803 140.258 125.759 140.876 125.923 141.454C126.088 142.032 126.452 142.534 126.95 142.87C130.537 145.303 134.27 147.573 138.15 149.68C152.343 157.387 166.337 164.033 180.13 169.62C183.977 171.18 187.85 172.557 191.75 173.75C195.65 174.943 199.65 176.24 203.75 177.64C208.297 179.187 212.743 180.31 217.09 181.01C221.75 181.757 226.353 182.367 230.9 182.84C233.973 183.16 237.007 183.433 240 183.66C246.313 184.133 252.973 184.253 259.98 184.02C263.27 183.9 265.92 184.29 268.66 182.33C271.49 180.3 271.13 176.12 271.11 172.99C271.097 171.443 270.833 170.033 270.32 168.76C267.733 162.327 263.62 157.54 257.98 154.4C255.607 153.08 252.92 152.307 249.92 152.08C245.48 151.753 240.683 152.113 235.53 153.16C227.123 154.867 219.157 157.863 211.63 162.15C210.13 163 206.87 163.96 205.14 163.96C201.22 163.967 197.28 163.977 193.32 163.99C190.82 164 188.64 163.39 186.19 163.03C185.323 162.903 184.453 162.703 183.58 162.43C177.687 160.61 172.133 158.443 166.92 155.93C166.08 155.523 165.293 154.983 164.56 154.31C164.487 154.243 164.433 154.159 164.402 154.064C164.372 153.97 164.366 153.87 164.387 153.773C164.407 153.676 164.452 153.586 164.517 153.512C164.583 153.438 164.666 153.382 164.76 153.35C166.58 152.75 168.78 153.52 170.62 153.79C171.927 153.977 173.16 154.253 174.32 154.62C179.91 156.4 186.14 156.35 191.87 155.91C194.01 155.743 196.34 155.31 198.86 154.61C201.28 153.937 203.527 153.157 205.6 152.27C208.76 150.91 211.62 149.88 214.18 149.18C222.3 146.96 229.51 145.62 235.81 145.16C240.37 144.827 243.403 144.74 244.91 144.9C251.59 145.613 257.58 147.623 262.88 150.93C270.747 155.83 274.927 162.683 275.42 171.49C275.6 174.73 274.98 177.93 274.81 181.18ZM121.87 148.96C121.903 150.14 122.353 150.977 123.22 151.47C131.033 155.93 138.607 160.257 145.94 164.45C146.473 164.75 147.04 164.963 147.64 165.09C148.34 165.23 148.77 165.647 148.93 166.34C148.966 166.496 149.046 166.638 149.159 166.749C149.273 166.861 149.415 166.938 149.57 166.97C153.74 167.84 156.18 171.35 160.19 172.2C161.163 172.4 162.183 172.88 163.25 173.64C166.77 176.14 170.81 178.04 174.9 179.61C177.867 180.757 180.84 181.963 183.82 183.23C190.62 186.117 198.793 189.02 208.34 191.94C213.28 193.453 218.037 194.537 222.61 195.19C227.73 195.917 232.723 196.437 237.59 196.75C246.183 197.303 254.11 195.767 261.37 192.14C262.517 191.567 262.56 190.917 261.5 190.19C260.667 189.623 259.7 189.72 258.6 190.48C258.265 190.71 257.877 190.857 257.47 190.91C256.03 191.103 254.87 191.097 253.99 190.89C248.53 189.59 242.65 190.22 237.74 189.75C226.667 188.697 217.753 187.31 211 185.59C207.187 184.623 203.197 183.61 199.03 182.55C196.037 181.783 193.007 180.77 189.94 179.51C183.993 177.057 178.227 174.713 172.64 172.48C170.147 171.48 167.757 170.427 165.47 169.32C154.51 164 143.463 158.5 132.33 152.82C129.19 151.23 126.34 148.77 123.15 147.79C122.965 147.732 122.766 147.735 122.583 147.798C122.399 147.861 122.241 147.981 122.13 148.14C121.943 148.407 121.857 148.68 121.87 148.96Z" fill="#858585"/>
</svg>
