<?xml version="1.0" encoding="UTF-8" standalone="no"?>
<!DOCTYPE svg PUBLIC "-//W3C//DTD SVG 1.1//EN" "http://www.w3.org/Graphics/SVG/1.1/DTD/svg11.dtd">
<svg xmlns="http://www.w3.org/2000/svg" version="1.1" viewBox="0.00 0.00 369.00 377.00">
<path fill="#aaa" d="
  M 124.75 154.32
  Q 126.10 154.78 126.91 153.59
  Q 130.02 148.98 131.09 143.48
  C 131.44 141.68 132.58 140.38 133.01 138.52
  C 134.01 134.26 135.63 130.24 136.72 126.03
  Q 138.80 118.00 140.97 111.62
  Q 145.14 99.35 150.34 85.25
  C 158.77 62.37 173.66 39.47 195.77 29.35
  Q 200.04 27.40 204.20 26.90
  A 1.86 1.85 -65.2 0 0 205.06 26.58
  C 207.75 24.74 212.94 25.45 216.07 26.00
  Q 218.31 26.40 216.13 27.04
  Q 214.00 27.67 211.57 27.90
  Q 208.91 28.16 206.53 28.72
  C 183.48 34.12 168.70 56.84 160.21 77.80
  Q 154.85 91.03 150.44 106.28
  Q 149.89 108.19 149.20 110.03
  Q 148.36 112.29 147.81 114.67
  Q 145.15 126.28 139.78 141.43
  C 134.98 154.99 128.58 167.89 121.28 179.94
  Q 110.15 198.31 93.92 213.27
  Q 87.02 219.64 77.35 224.44
  Q 74.32 225.94 70.51 226.26
  Q 63.86 226.83 57.90 226.72
  Q 49.75 226.56 44.92 222.36
  C 41.79 219.64 36.07 214.58 35.32 210.26
  Q 34.52 205.59 34.64 200.19
  Q 34.77 194.84 36.90 190.47
  C 41.36 181.33 50.38 174.47 59.15 169.79
  C 63.43 167.50 69.01 167.09 73.66 167.68
  Q 78.49 168.30 73.88 169.86
  Q 65.63 172.65 59.38 177.19
  C 54.71 180.57 51.64 186.63 48.97 191.74
  Q 44.87 199.59 44.82 208.62
  Q 44.80 212.20 46.20 214.64
  C 49.02 219.57 54.58 223.55 59.95 224.03
  Q 64.10 224.40 69.64 222.64
  C 76.64 220.41 84.34 217.37 89.70 212.20
  C 90.69 211.24 91.88 210.91 92.91 209.96
  Q 99.61 203.76 103.84 198.30
  Q 113.21 186.17 119.77 171.79
  Q 120.65 169.87 118.52 168.89
  Q 109.86 164.90 101.63 162.62
  Q 93.51 160.37 84.50 158.10
  Q 79.98 156.96 75.55 156.89
  Q 70.63 156.81 66.58 157.21
  Q 60.73 157.79 54.30 160.14
  Q 51.88 161.03 49.55 162.95
  C 44.64 166.98 39.49 171.64 35.59 176.69
  Q 34.25 178.42 33.78 180.71
  Q 33.04 184.28 31.88 187.44
  A 1.12 1.12 0.0 0 1 29.86 187.62
  C 26.39 181.60 27.08 174.44 31.34 168.70
  Q 38.45 159.12 50.34 155.20
  Q 58.16 152.63 64.61 152.12
  C 71.16 151.60 78.21 151.77 85.02 152.77
  Q 94.12 154.12 102.17 156.42
  Q 110.72 158.86 122.00 163.03
  Q 124.15 163.82 124.14 161.53
  Q 124.14 161.39 124.14 161.19
  Q 124.13 159.02 122.13 158.17
  Q 106.80 151.68 91.33 150.22
  Q 80.04 149.15 69.35 149.00
  Q 67.94 148.98 69.01 148.07
  C 69.64 147.54 70.40 147.17 71.23 147.07
  Q 85.47 145.19 100.11 146.88
  C 101.34 147.03 101.83 147.79 102.96 147.95
  Q 107.54 148.60 112.05 150.08
  Q 118.49 152.19 124.75 154.32
  Z"
/>
<path fill="#aaa" d="
  M 301.81 206.18
  Q 301.75 207.42 302.96 207.16
  Q 310.69 205.51 317.50 203.41
  Q 319.74 202.72 322.06 202.51
  A 0.51 0.51 0.0 0 1 322.58 203.22
  C 320.51 208.07 307.10 212.34 302.14 213.80
  Q 297.44 215.19 294.14 217.88
  Q 291.32 220.18 288.36 221.71
  Q 277.13 227.48 263.08 227.46
  Q 252.32 227.44 242.38 225.89
  Q 232.92 224.42 223.08 220.72
  Q 212.97 216.91 203.79 212.85
  Q 200.30 211.31 197.11 209.25
  C 195.11 207.96 193.35 207.75 191.38 206.79
  Q 170.41 196.62 144.25 182.46
  A 0.65 0.64 -55.3 0 0 143.46 182.61
  Q 139.95 186.71 136.48 190.94
  C 126.41 203.25 112.86 212.22 98.64 218.78
  Q 97.10 219.49 95.39 219.87
  Q 93.91 220.19 94.63 218.86
  Q 95.08 218.03 95.93 217.49
  Q 113.51 206.36 124.29 190.61
  Q 134.26 176.05 141.28 159.25
  Q 143.67 153.54 146.06 147.53
  Q 146.93 145.35 147.21 143.13
  C 147.46 141.08 148.82 139.29 149.51 137.28
  Q 151.22 132.28 152.61 127.26
  Q 154.01 122.24 155.70 117.28
  C 157.96 110.67 159.68 103.57 162.02 97.01
  C 163.63 92.51 164.72 87.90 166.55 83.40
  Q 172.83 67.89 178.84 58.67
  C 185.18 48.93 195.08 39.52 206.02 34.52
  Q 209.77 32.81 213.74 32.56
  Q 224.94 31.85 232.49 33.25
  Q 233.69 33.48 237.80 35.16
  Q 248.54 39.57 253.42 49.97
  Q 255.10 53.56 255.11 58.20
  Q 255.11 62.96 255.10 68.05
  Q 255.09 72.74 253.50 76.58
  C 251.25 82.02 248.53 87.36 244.22 91.47
  Q 232.62 102.56 217.24 106.75
  C 213.85 107.68 207.97 108.40 205.53 105.01
  A 1.15 1.14 -24.8 0 1 206.19 103.23
  C 208.54 102.64 210.90 102.07 213.33 102.07
  C 222.48 102.09 231.45 95.05 237.19 88.23
  Q 243.46 80.79 246.75 72.90
  Q 247.84 70.29 248.53 67.03
  C 249.10 64.31 249.97 61.60 249.71 58.81
  Q 248.39 44.85 236.29 38.57
  Q 231.07 35.86 225.47 35.05
  Q 221.28 34.45 216.13 36.33
  Q 206.43 39.88 198.78 48.04
  Q 188.05 59.50 183.30 72.30
  Q 179.91 81.43 176.53 91.73
  Q 176.02 93.27 175.84 94.83
  Q 175.65 96.56 174.35 97.92
  A 1.25 1.22 -25.8 0 0 174.01 98.86
  C 174.14 100.79 174.29 102.60 173.53 104.48
  Q 171.46 109.58 170.16 115.09
  Q 168.92 120.39 167.15 125.47
  Q 163.20 136.86 159.11 149.51
  C 157.42 154.75 155.30 159.64 153.05 164.71
  A 2.55 2.55 0.0 0 0 153.95 167.87
  Q 159.33 171.52 165.15 174.68
  Q 186.44 186.24 207.13 194.62
  Q 212.90 196.96 218.75 198.75
  Q 224.60 200.54 230.75 202.64
  Q 237.57 204.96 244.09 206.01
  Q 251.08 207.13 257.90 207.84
  Q 262.51 208.32 267.00 208.66
  Q 276.47 209.37 286.98 209.02
  C 290.27 208.90 292.92 209.29 295.66 207.33
  C 298.49 205.30 298.13 201.12 298.11 197.99
  Q 298.09 195.67 297.32 193.76
  Q 293.44 184.11 284.98 179.40
  Q 281.42 177.42 276.92 177.08
  Q 270.26 176.59 262.53 178.16
  Q 249.92 180.72 238.63 187.15
  C 237.13 188.00 233.87 188.96 232.14 188.96
  Q 226.26 188.97 220.32 188.99
  C 217.82 189.00 215.64 188.39 213.19 188.03
  Q 211.89 187.84 210.58 187.43
  Q 201.74 184.70 193.92 180.93
  Q 192.66 180.32 191.56 179.31
  A 0.57 0.57 0.0 0 1 191.76 178.35
  C 193.58 177.75 195.78 178.52 197.62 178.79
  Q 199.58 179.07 201.32 179.62
  C 206.91 181.40 213.14 181.35 218.87 180.91
  Q 222.08 180.66 225.86 179.61
  Q 229.49 178.60 232.60 177.27
  Q 237.34 175.23 241.18 174.18
  Q 253.36 170.85 262.81 170.16
  Q 269.65 169.66 271.91 169.90
  Q 281.93 170.97 289.88 175.93
  Q 301.68 183.28 302.42 196.49
  C 302.60 199.73 301.98 202.93 301.81 206.18
  Z
  M 148.87 173.96
  Q 148.92 175.73 150.22 176.47
  Q 161.94 183.16 172.94 189.45
  Q 173.74 189.90 174.64 190.09
  Q 175.69 190.30 175.93 191.34
  A 0.84 0.83 89.4 0 0 176.57 191.97
  C 180.74 192.84 183.18 196.35 187.19 197.20
  Q 188.65 197.50 190.25 198.64
  C 193.77 201.14 197.81 203.04 201.90 204.61
  Q 206.35 206.33 210.82 208.23
  Q 221.02 212.56 235.34 216.94
  Q 242.75 219.21 249.61 220.19
  Q 257.29 221.28 264.59 221.75
  Q 277.48 222.58 288.37 217.14
  Q 290.09 216.28 288.50 215.19
  Q 287.25 214.34 285.60 215.48
  A 2.61 2.55 23.5 0 1 284.47 215.91
  Q 282.31 216.20 280.99 215.89
  C 275.53 214.59 269.65 215.22 264.74 214.75
  Q 248.13 213.17 238.00 210.59
  Q 232.28 209.14 226.03 207.55
  Q 221.54 206.40 216.94 204.51
  Q 208.02 200.83 199.64 197.48
  Q 195.90 195.98 192.47 194.32
  Q 176.03 186.34 159.33 177.82
  C 156.19 176.23 153.34 173.77 150.15 172.79
  A 0.91 0.91 0.0 0 0 149.13 173.14
  Q 148.85 173.54 148.87 173.96
  Z"
/>
<path fill="#aaa" d="
  M 113.13 307.77
  C 112.32 310.66 114.18 311.93 116.79 312.02
  C 122.74 312.22 129.08 312.72 134.36 309.65
  C 137.72 307.69 139.88 304.32 142.80 301.77
  Q 144.15 300.60 143.81 302.35
  Q 142.63 308.53 140.28 314.64
  Q 140.09 315.13 139.56 315.14
  Q 120.92 315.49 104.76 315.70
  Q 100.16 315.75 95.84 315.02
  Q 94.38 314.77 95.60 313.93
  Q 97.29 312.75 99.68 313.03
  Q 100.26 313.10 100.71 312.73
  Q 104.06 309.99 104.76 306.27
  Q 105.45 302.56 105.87 301.71
  C 106.79 299.87 107.59 297.98 108.21 296.02
  Q 111.46 285.75 115.04 275.59
  Q 116.10 272.55 115.45 271.32
  Q 114.22 269.03 110.62 268.83
  Q 110.47 268.82 110.46 268.68
  L 110.43 268.32
  Q 110.40 268.01 110.71 267.95
  Q 121.08 266.13 131.22 267.90
  Q 131.61 267.97 131.48 268.34
  L 131.38 268.64
  A 0.35 0.34 -77.8 0 1 131.03 268.87
  C 126.65 268.50 123.39 276.82 122.32 280.01
  Q 118.69 290.78 115.25 300.90
  Q 114.13 304.18 113.13 307.77
  Z"
/>
<path fill="#aaa" d="
  M 169.09 304.37
  Q 167.44 305.90 166.14 307.78
  C 163.75 311.25 160.49 313.95 156.52 315.57
  C 153.32 316.88 148.10 316.05 149.04 311.32
  Q 151.27 300.03 154.76 289.76
  A 1.91 1.90 37.1 0 0 154.52 288.04
  L 152.25 284.82
  Q 151.85 284.26 152.50 284.01
  Q 156.96 282.33 162.61 283.39
  Q 163.48 283.56 163.24 284.41
  Q 160.82 292.78 158.25 301.52
  Q 157.07 305.54 156.27 309.47
  A 1.00 1.00 0.0 0 0 157.57 310.62
  C 159.60 309.95 162.30 308.69 163.23 306.60
  Q 163.95 304.99 165.17 303.85
  Q 169.48 299.78 171.60 295.52
  Q 173.96 290.80 175.83 286.11
  Q 177.10 282.91 180.55 283.01
  L 181.00 283.03
  Q 184.25 283.12 183.05 286.14
  Q 181.60 289.79 180.58 293.32
  Q 178.40 300.84 176.30 308.44
  Q 176.06 309.30 176.15 310.26
  A 0.93 0.92 -22.4 0 0 177.65 310.88
  L 182.30 307.11
  Q 182.86 306.66 182.99 307.36
  Q 183.24 308.64 182.58 309.79
  C 180.50 313.39 176.32 316.43 172.00 316.00
  Q 171.49 315.95 171.08 315.63
  C 167.02 312.45 170.30 308.59 170.04 304.74
  A 0.56 0.56 0.0 0 0 169.09 304.37
  Z"
/>
<path fill="#aaa" d="
  M 209.83 292.46
  Q 211.48 288.58 215.27 285.35
  Q 219.64 281.63 224.74 283.86
  A 1.03 1.00 8.2 0 1 225.34 284.64
  C 225.75 287.35 222.75 288.03 220.76 287.91
  Q 217.80 287.74 214.82 289.81
  Q 214.16 290.27 213.97 290.98
  C 213.60 292.37 212.37 293.92 211.46 294.94
  A 2.19 2.19 0.0 0 0 211.00 296.99
  Q 212.95 303.70 217.14 309.98
  Q 218.03 311.32 219.29 310.32
  Q 220.46 309.39 221.77 308.65
  Q 222.47 308.25 222.95 308.34
  Q 223.49 308.43 223.74 308.90
  Q 223.98 309.37 223.69 309.80
  C 221.83 312.57 217.23 317.55 213.72 315.90
  C 211.78 314.98 210.11 312.50 209.29 310.51
  Q 208.06 307.50 206.73 304.36
  A 0.80 0.79 54.4 0 0 205.41 304.14
  C 201.77 308.16 198.25 313.03 193.72 315.77
  C 191.57 317.07 189.62 315.59 188.05 314.16
  Q 186.81 313.05 187.92 311.59
  C 191.00 307.53 193.10 312.48 195.81 310.52
  Q 198.93 308.25 199.58 306.82
  Q 201.25 303.15 203.75 300.09
  A 2.60 2.59 -40.8 0 0 203.97 297.12
  Q 201.75 293.37 200.63 288.90
  A 2.53 2.53 0.0 0 0 198.37 286.99
  Q 194.73 286.71 190.99 285.82
  Q 190.11 285.61 190.92 285.21
  Q 196.10 282.62 202.04 283.36
  C 205.24 283.76 208.06 289.94 209.17 292.46
  Q 209.50 293.22 209.83 292.46
  Z"
/>
<path fill="#aaa" d="
  M 239.10 302.93
  Q 237.84 308.04 242.53 310.82
  Q 244.50 311.99 246.58 311.59
  Q 253.13 310.36 256.72 307.77
  Q 257.49 307.22 258.34 307.63
  Q 258.47 307.69 258.60 307.74
  Q 259.54 308.07 258.80 308.74
  C 253.87 313.18 246.23 317.02 239.71 315.49
  C 232.05 313.70 229.74 306.65 232.14 299.74
  C 234.59 292.65 241.83 284.86 249.40 283.38
  C 252.46 282.78 259.57 282.59 261.05 286.30
  C 262.17 289.12 259.77 293.02 257.71 294.68
  Q 251.85 299.37 243.56 300.90
  Q 241.28 301.33 239.60 302.27
  Q 239.21 302.49 239.10 302.93
  Z
  M 255.24 288.11
  Q 255.77 286.97 254.89 286.04
  C 252.63 283.63 250.09 285.62 248.27 287.26
  Q 243.52 291.54 241.26 296.30
  A 1.28 1.28 0.0 0 0 242.69 298.10
  Q 250.61 296.42 254.94 289.48
  Q 255.08 289.26 255.07 288.99
  C 255.06 288.72 255.13 288.36 255.24 288.11
  Z"
/>
</svg>
